<svg id="Camada_1" data-name="Camada 1" xmlns="http://www.w3.org/2000/svg" viewBox="90 390 900 270"><defs><style>.cls-1{fill:#2b2b2b;}</style></defs><path d="M182.56,405.2c-3.08,18.05,2.14,32.91,18.53,43.49,41.33,34.15,75.32,69,75.16,107.11,5.09,58.58-27.68,105.78-108.72,105-39.3-5.49-68.59-23.54-82.41-60.94-8.81-34.33-.58-63.41,36.77-83.48-4.85,14.23-6.86,28.24-4.29,41.87,6.32,18.55,15.22,32.75,30.33,36.51,17.66,3.71,29.66-.69,32.49-18.25.37-12-3.94-23.1-13.69-33-17.38-18.67-32.13-37.89-32.22-60.13C133,449.46,151.63,424.59,182.56,405.2Z"/><path class="cls-1" d="M179.32,562.78c17.76,21.4,24.44,43,7.45,65.15-22.08,19.84-46.69,16.94-72.39,4.38-14.62-8.64-24.06-22-30.55-38.08C78.16,564.89,86,545.29,101.15,531a94.92,94.92,0,0,1,20.74-14.7c-4,12.25-6.49,24.61-5,37.27,5,18.58,12.4,32.53,24.16,38.49C168,600.51,183.54,594.26,179.32,562.78Z"/><path d="M329.11,482a13.47,13.47,0,0,1,13.52-13.29h46.49a48,48,0,1,1,0,96.07h-33V601.3a13.82,13.82,0,0,1-13.52,13.52,13.5,13.5,0,0,1-13.52-13.52Zm27,13.75V538h33a21.11,21.11,0,0,0,0-42.22Z"/><path d="M491.82,506A53.58,53.58,0,0,1,544.71,551c2.61,10.69-1,18.28-14.24,18.28H463.83a29.19,29.19,0,0,0,28,20.63,30.12,30.12,0,0,0,20.63-8.54,12.75,12.75,0,0,1,9-3.79,11.39,11.39,0,0,1,8.55,3.79c4.74,4.51,4.74,12.56,0,17.55a54.4,54.4,0,1,1-38.19-93Zm0,24.66a29.33,29.33,0,0,0-28,21.11h55.5A28.73,28.73,0,0,0,491.82,530.61Z"/><path d="M603.51,506a54.06,54.06,0,0,1,53.85,54.31c0,30.36-24.2,54.56-53.85,54.56-11.87,0-22.3-4-29.89-10.91v35.81a12.4,12.4,0,0,1-12.33,12.34A12.57,12.57,0,0,1,549,639.72V560.26A54.21,54.21,0,0,1,603.51,506Zm0,24.66a29.65,29.65,0,1,0,29.41,29.65C632.92,544.13,619.4,530.61,603.51,530.61Z"/><path d="M716.66,506a54.06,54.06,0,0,1,53.85,54.31c0,30.36-24.2,54.56-53.85,54.56-11.86,0-22.3-4-29.89-10.91v35.81a12.4,12.4,0,0,1-12.33,12.34,12.56,12.56,0,0,1-12.33-12.34V560.26A54.21,54.21,0,0,1,716.66,506Zm0,24.66a29.65,29.65,0,1,0,29.42,29.65C746.08,544.13,732.55,530.61,716.66,530.61Z"/><path d="M827.11,506A53.58,53.58,0,0,1,880,551c2.61,10.69-1,18.28-14.24,18.28H799.12a29.19,29.19,0,0,0,28,20.63,30.12,30.12,0,0,0,20.63-8.54,12.75,12.75,0,0,1,9-3.79,11.39,11.39,0,0,1,8.55,3.79c4.74,4.51,4.74,12.56,0,17.55a54.4,54.4,0,1,1-38.19-93Zm0,24.66a29.33,29.33,0,0,0-28,21.11h55.5A28.73,28.73,0,0,0,827.11,530.61Z"/><path d="M933.55,506a12.56,12.56,0,0,1,12.34,12.33,12.4,12.4,0,0,1-12.34,12.33A24.26,24.26,0,0,0,909.12,555v47.67a12.34,12.34,0,1,1-24.67,0V555A49.35,49.35,0,0,1,933.55,506Z"/></svg>