<svg id="Camada_1" data-name="Camada 1" xmlns="http://www.w3.org/2000/svg" viewBox="90 390 900 270"><defs><style>.cls-1{fill:#caf000;}.cls-2{fill:#000131;}</style></defs><path class="cls-1" d="M202.69,402.55c-3.14,18.41,2.18,33.58,18.9,44.37,42.17,34.85,76.85,70.41,76.69,109.28C303.47,616,270,664.13,187.35,663.3c-40.1-5.61-70-24-84.08-62.18-9-35-.6-64.69,37.52-85.18-4.95,14.53-7,28.82-4.38,42.73,6.45,18.92,15.53,33.41,31,37.25,18,3.77,30.25-.72,33.14-18.63.38-12.28-4-23.56-14-33.69-17.73-19.05-32.78-38.66-32.87-61.35C152.13,447.71,171.13,422.33,202.69,402.55Z"/><path class="cls-2" d="M199.38,563.32c18.12,21.84,24.93,43.91,7.6,66.48-22.52,20.24-47.64,17.28-73.86,4.46-14.92-8.81-24.54-22.45-31.17-38.85-5.78-29.93,2.17-49.93,17.67-64.47a96.81,96.81,0,0,1,21.17-15c-4.12,12.5-6.62,25.12-5.09,38,5.06,18.95,12.66,33.19,24.65,39.27C187.87,601.82,203.69,595.44,199.38,563.32Z"/><path class="cls-2" d="M352.21,480.91A13.74,13.74,0,0,1,366,467.35h47.44a49,49,0,1,1,0,98H379.8v37.26a14.11,14.11,0,0,1-13.8,13.8,13.79,13.79,0,0,1-13.79-13.8Zm27.59,14V538h33.64a21.54,21.54,0,0,0,0-43.08Z"/><path class="cls-2" d="M518.21,505.34a54.67,54.67,0,0,1,54,46c2.66,10.9-1,18.64-14.52,18.64h-68A29.77,29.77,0,0,0,518.21,591a30.74,30.74,0,0,0,21.06-8.72,13,13,0,0,1,9.19-3.87,11.64,11.64,0,0,1,8.72,3.87c4.84,4.6,4.84,12.82,0,17.91a55.5,55.5,0,1,1-39-94.87Zm0,25.16A29.92,29.92,0,0,0,489.66,552h56.62A29.32,29.32,0,0,0,518.21,530.5Z"/><path class="cls-2" d="M632.17,505.34c30.25,0,54.94,24.69,54.94,55.42,0,31-24.69,55.66-54.94,55.66-12.1,0-22.75-4.12-30.49-11.13v36.53a12.66,12.66,0,0,1-12.59,12.59,12.82,12.82,0,0,1-12.58-12.59V560.76A55.32,55.32,0,0,1,632.17,505.34Zm0,25.16a30.26,30.26,0,1,0,30,30.26C662.18,544.3,648.38,530.5,632.17,530.5Z"/><path class="cls-2" d="M747.62,505.34c30.25,0,54.94,24.69,54.94,55.42,0,31-24.69,55.66-54.94,55.66-12.11,0-22.75-4.12-30.5-11.13v36.53a12.65,12.65,0,0,1-12.58,12.59A12.82,12.82,0,0,1,692,641.82V560.76A55.32,55.32,0,0,1,747.62,505.34Zm0,25.16a30.26,30.26,0,1,0,30,30.26C777.63,544.3,763.83,530.5,747.62,530.5Z"/><path class="cls-2" d="M860.3,505.34a54.67,54.67,0,0,1,54,46c2.66,10.9-1,18.64-14.52,18.64h-68A29.77,29.77,0,0,0,860.3,591a30.74,30.74,0,0,0,21.06-8.72,13,13,0,0,1,9.19-3.87,11.64,11.64,0,0,1,8.72,3.87c4.84,4.6,4.84,12.82,0,17.91a55.5,55.5,0,1,1-39-94.87Zm0,25.16A29.92,29.92,0,0,0,831.75,552h56.62A29.32,29.32,0,0,0,860.3,530.5Z"/><path class="cls-2" d="M968.91,505.34a12.81,12.81,0,0,1,12.58,12.58,12.64,12.64,0,0,1-12.58,12.58A24.75,24.75,0,0,0,944,555.43v48.64a12.59,12.59,0,1,1-25.17,0V555.43A50.36,50.36,0,0,1,968.91,505.34Z"/></svg>