<svg id="Camada_1" data-name="Camada 1" xmlns="http://www.w3.org/2000/svg" viewBox="90 390 900 270"><defs><style>.cls-1{fill:#fff;}.cls-2{fill:#d8d8d8;}</style></defs><path class="cls-1" d="M212.11,412.24c-3,17.8,2.11,32.46,18.27,42.89,40.76,33.69,74.28,68.06,74.13,105.63,5,57.77-27.3,104.32-107.22,103.51-38.76-5.41-67.64-23.21-81.28-60.09-8.68-33.86-.57-62.54,36.27-82.34-4.78,14-6.77,27.86-4.23,41.3,6.23,18.29,15,32.3,29.91,36,17.41,3.65,29.25-.69,32-18,.37-11.88-3.88-22.78-13.5-32.57-17.14-18.41-31.68-37.36-31.77-59.3C163.24,455.9,181.61,431.36,212.11,412.24Z"/><path class="cls-2" d="M208.92,567.64c17.51,21.11,24.09,42.45,7.34,64.26-21.77,19.56-46,16.7-71.39,4.31-14.42-8.51-23.72-21.71-30.13-37.55-5.59-28.93,2.1-48.26,17.08-62.31a93.77,93.77,0,0,1,20.46-14.51c-4,12.09-6.4,24.28-4.92,36.76,4.89,18.32,12.24,32.09,23.83,38C197.79,604.85,213.08,598.69,208.92,567.64Z"/><path class="cls-1" d="M356.63,488A13.28,13.28,0,0,1,370,474.88h45.85a47.37,47.37,0,1,1,0,94.74H383.3v36A13.63,13.63,0,0,1,370,619a13.32,13.32,0,0,1-13.33-13.33Zm26.67,13.56v41.64h32.51a20.82,20.82,0,0,0,0-41.64Z"/><path class="cls-1" d="M517.09,511.6A52.83,52.83,0,0,1,569.25,556c2.57,10.54-.94,18-14,18H489.48a28.8,28.8,0,0,0,27.61,20.35A29.72,29.72,0,0,0,537.44,586a12.57,12.57,0,0,1,8.88-3.74,11.21,11.21,0,0,1,8.43,3.74c4.68,4.44,4.68,12.39,0,17.31a53.65,53.65,0,1,1-37.66-91.7Zm0,24.32a28.92,28.92,0,0,0-27.6,20.82h54.73A28.34,28.34,0,0,0,517.09,535.92Z"/><path class="cls-1" d="M627.24,511.6a53.32,53.32,0,0,1,53.1,53.57c0,29.93-23.87,53.8-53.1,53.8-11.71,0-22-4-29.48-10.76v35.31a12.23,12.23,0,0,1-12.16,12.17,12.4,12.4,0,0,1-12.17-12.17V565.17A53.47,53.47,0,0,1,627.24,511.6Zm0,24.32a29.24,29.24,0,1,0,29,29.25C656.24,549.26,642.91,535.92,627.24,535.92Z"/><path class="cls-1" d="M738.82,511.6a53.31,53.31,0,0,1,53.1,53.57c0,29.93-23.86,53.8-53.1,53.8-11.7,0-22-4-29.47-10.76v35.31a12.24,12.24,0,0,1-12.17,12.17A12.39,12.39,0,0,1,685,643.52V565.17A53.47,53.47,0,0,1,738.82,511.6Zm0,24.32a29.24,29.24,0,1,0,29,29.25C767.83,549.26,754.49,535.92,738.82,535.92Z"/><path class="cls-1" d="M847.74,511.6A52.83,52.83,0,0,1,899.9,556c2.57,10.54-.94,18-14,18H820.14a28.78,28.78,0,0,0,27.6,20.35A29.7,29.7,0,0,0,868.09,586a12.59,12.59,0,0,1,8.89-3.74A11.19,11.19,0,0,1,885.4,586c4.68,4.44,4.68,12.39,0,17.31a53.65,53.65,0,1,1-37.66-91.7Zm0,24.32a28.9,28.9,0,0,0-27.59,20.82h54.72A28.34,28.34,0,0,0,847.74,535.92Z"/><path class="cls-1" d="M952.71,511.6a12.38,12.38,0,0,1,12.17,12.16,12.23,12.23,0,0,1-12.17,12.16A23.92,23.92,0,0,0,928.62,560v47a12.17,12.17,0,1,1-24.33,0V560A48.67,48.67,0,0,1,952.71,511.6Z"/></svg>